<mxfile host="app.diagrams.net" modified="2023-07-12T07:17:08.252Z" agent="Mozilla/5.0 (Windows NT 10.0; Win64; x64) AppleWebKit/537.36 (KHTML, like Gecko) Chrome/114.0.0.0 Safari/537.36" etag="WTfnf-nu6COwhgv7X0Vy" version="21.5.2" type="github">
  <diagram id="j8xyhr3FoICTHfnqtpLg" name="페이지-2">
    <mxGraphModel dx="725" dy="976" grid="1" gridSize="10" guides="1" tooltips="1" connect="1" arrows="1" fold="1" page="1" pageScale="1" pageWidth="1169" pageHeight="827" math="0" shadow="0">
      <root>
        <mxCell id="0" />
        <mxCell id="1" parent="0" />
        <mxCell id="VL3-MT_kZWsQlIxQ3HVy-1" value="&lt;div style=&quot;box-sizing:border-box;width:100%;background:#e4e4e4;padding:2px;&quot;&gt;member.user&lt;/div&gt;&lt;table style=&quot;width:100%;font-size:1em;&quot; cellpadding=&quot;2&quot; cellspacing=&quot;0&quot;&gt;&lt;tbody&gt;&lt;tr&gt;&lt;td&gt;PK&lt;/td&gt;&lt;td&gt;user_no: int UNSIGNED&lt;/td&gt;&lt;/tr&gt;&lt;tr&gt;&lt;td&gt;&lt;br&gt;&lt;/td&gt;&lt;td&gt;user_name: varchar(20)&lt;br&gt;&lt;/td&gt;&lt;/tr&gt;&lt;tr&gt;&lt;td&gt;&lt;/td&gt;&lt;td&gt;login_type: tinyint UNSIGNED&lt;br&gt;profile_id: int UNSIGNED&lt;br&gt;nickname: varchar(12)&lt;br&gt;image_url: varchar(100)&lt;br&gt;introduction: varchar(300)&lt;br&gt;join_date: datetime&lt;br&gt;update_date: datetime&lt;br&gt;password_id: int UNSIGNED&lt;br&gt;salt: varchar(128)&lt;br&gt;password: varchar(128)&lt;br&gt;update_date: datetime&lt;/td&gt;&lt;/tr&gt;&lt;/tbody&gt;&lt;/table&gt;" style="verticalAlign=top;align=left;overflow=fill;html=1;whiteSpace=wrap;" vertex="1" parent="1">
          <mxGeometry x="495" y="400" width="195" height="220" as="geometry" />
        </mxCell>
        <mxCell id="VL3-MT_kZWsQlIxQ3HVy-5" style="edgeStyle=orthogonalEdgeStyle;rounded=0;orthogonalLoop=1;jettySize=auto;html=1;exitX=0.25;exitY=1;exitDx=0;exitDy=0;entryX=0.75;entryY=0;entryDx=0;entryDy=0;endArrow=ERmandOne;endFill=0;startArrow=ERmandOne;startFill=0;" edge="1" parent="1" source="VL3-MT_kZWsQlIxQ3HVy-4" target="VL3-MT_kZWsQlIxQ3HVy-1">
          <mxGeometry relative="1" as="geometry" />
        </mxCell>
        <mxCell id="VL3-MT_kZWsQlIxQ3HVy-4" value="&lt;div style=&quot;box-sizing:border-box;width:100%;background:#e4e4e4;padding:2px;&quot;&gt;member.authentication&lt;/div&gt;&lt;table style=&quot;width:100%;font-size:1em;&quot; cellpadding=&quot;2&quot; cellspacing=&quot;0&quot;&gt;&lt;tbody&gt;&lt;tr&gt;&lt;td&gt;PK&lt;/td&gt;&lt;td&gt;authentication_id: int UNSIGNED&lt;/td&gt;&lt;/tr&gt;&lt;tr&gt;&lt;td&gt;&lt;br&gt;&lt;/td&gt;&lt;td&gt;user_no: int UNSIGNED&lt;/td&gt;&lt;/tr&gt;&lt;tr&gt;&lt;td&gt;&lt;/td&gt;&lt;td&gt;gather_agree: tinyint UNSIGNED&lt;br&gt;cell_phone: varchar(128)&lt;br&gt;email: varchar(128)&lt;br&gt;birthday: varchar(128)&lt;br&gt;gender: tinyint UNSIGNED&lt;br&gt;nation: tinyint UNSIGNED&lt;br&gt;auth_date: datetime&lt;br&gt;&lt;br&gt;&lt;br&gt;&lt;/td&gt;&lt;/tr&gt;&lt;/tbody&gt;&lt;/table&gt;" style="verticalAlign=top;align=left;overflow=fill;html=1;whiteSpace=wrap;" vertex="1" parent="1">
          <mxGeometry x="590" y="110" width="210" height="160" as="geometry" />
        </mxCell>
        <mxCell id="VL3-MT_kZWsQlIxQ3HVy-11" style="edgeStyle=orthogonalEdgeStyle;rounded=0;orthogonalLoop=1;jettySize=auto;html=1;exitX=0.75;exitY=1;exitDx=0;exitDy=0;entryX=0.25;entryY=0;entryDx=0;entryDy=0;startArrow=ERmandOne;startFill=0;endArrow=ERmandOne;endFill=0;" edge="1" parent="1" source="VL3-MT_kZWsQlIxQ3HVy-6" target="VL3-MT_kZWsQlIxQ3HVy-1">
          <mxGeometry relative="1" as="geometry" />
        </mxCell>
        <mxCell id="VL3-MT_kZWsQlIxQ3HVy-6" value="&lt;div style=&quot;box-sizing:border-box;width:100%;background:#e4e4e4;padding:2px;&quot;&gt;auth.social_login&lt;/div&gt;&lt;table style=&quot;width:100%;font-size:1em;&quot; cellpadding=&quot;2&quot; cellspacing=&quot;0&quot;&gt;&lt;tbody&gt;&lt;tr&gt;&lt;td&gt;PK&lt;/td&gt;&lt;td&gt;social_login_id: int UNSIGNED&lt;/td&gt;&lt;/tr&gt;&lt;tr&gt;&lt;td&gt;FK&lt;/td&gt;&lt;td&gt;user_no: int UNSIGNED&lt;/td&gt;&lt;/tr&gt;&lt;tr&gt;&lt;td&gt;&lt;/td&gt;&lt;td&gt;social_code: tinyint UNSIGNED&lt;br&gt;external_id: varchar(64)&lt;br&gt;access_token: varchar(256)&lt;br&gt;update_date: datetime&lt;br&gt;&lt;br&gt;&lt;br&gt;&lt;br&gt;&lt;/td&gt;&lt;/tr&gt;&lt;/tbody&gt;&lt;/table&gt;" style="verticalAlign=top;align=left;overflow=fill;html=1;whiteSpace=wrap;" vertex="1" parent="1">
          <mxGeometry x="350" y="110" width="210" height="120" as="geometry" />
        </mxCell>
      </root>
    </mxGraphModel>
  </diagram>
</mxfile>
